<svg xmlns="http://www.w3.org/2000/svg" width="252" height="96"><g data-name="Group 9"><path data-name="Path 1" d="M137.771 20.449h14.1a2.151 2.151 0 011.885 3.2l-28.675 51.4a68.109 68.109 0 01-8.808 12.7 23.811 23.811 0 01-10.081 6.244c-4.033 1.34-20.321 2.011-27.113 2.011h-6.942l2.094-9.747a6.691 6.691 0 016.546-5.277c4.952 0 18.8-1.975 19.79-5.925q.743-3.069-.425-11.851l-4.778-34.368a7.377 7.377 0 017.322-8.381h9.76a2.336 2.336 0 012.336 2.222q1.593 29.269 1.785 36.862a.2.2 0 00.38.07q8.623-20.139 17.043-36.826a4.224 4.224 0 013.781-2.334z" fill="#fff"/><path data-name="Path 2" d="M216.343 75.34l12.054-56.3a24.119 24.119 0 0123.6-19.041l-12.054 56.3a24.118 24.118 0 01-23.6 19.041z" fill="#fff"/><g data-name="Group 1"><path data-name="Path 3" d="M198.926 24.5a6.948 6.948 0 11-6.972 6.951 6.956 6.956 0 016.972-6.951z" fill="#f32735"/><path data-name="Path 4" d="M212.143 51.074a30.4 30.4 0 01-11.294 18.27q-8.847 7.117-22.056 7.114-14.7 0-21.409-8.547t-3.514-23.425a30.833 30.833 0 0111.286-18.48q8.737-7.021 22.161-7.017a35.846 35.846 0 0111.82 1.764 1.854 1.854 0 00-.21-.008A10.732 10.732 0 00188.19 31.45a10.615 10.615 0 00.59 3.488 9.129 9.129 0 00-3.272-.548 10.34 10.34 0 00-7.724 3.238c-2.093 2.168-3.6 5.365-4.524 9.618q-1.49 6.695.743 10.3a6.992 6.992 0 006.609 3.609 11.083 11.083 0 007.772-3.182q3.2-3.189 4.476-9.562a19.5 19.5 0 00.274-7.967 10.727 10.727 0 0016.522-9 10.465 10.465 0 00-.647-3.641q6.265 8.406 3.134 23.271z" fill="#fff"/></g><g data-name="Group 2" fill="#fff"><path data-name="Path 5" d="M32.063 30.359a30.046 30.046 0 00-4.376 7.069.027.027 0 01-.024.016H3.709A3.689 3.689 0 010 33.851a3.57 3.57 0 013.574-3.534h28.47a.026.026 0 01.019.042z"/><path data-name="Path 6" d="M81.99 27.505c-4.589-5.563-11.629-8.249-20.892-8.249q-13.044 0-21.743 6.769a30.592 30.592 0 00-10.5 15.845h-14a5.772 5.772 0 00-5.793 5.863 5.877 5.877 0 005.939 5.662h12.1q-.013 8.851 4.724 14.61 6.787 8.354 20.784 8.353 11.138 0 18.931-4.759a26.563 26.563 0 0011.188-13.745h-18.24q-3.4 4.758-10.075 4.756a10.052 10.052 0 01-7.055-2.377 9.092 9.092 0 01-2.7-6.821h40.087a21.907 21.907 0 00.955-3.489c2.103-9.276.885-16.85-3.71-22.418zM68.521 41.888H47.1q3.606-8.882 12.619-8.884a9.024 9.024 0 016.575 2.275q2.332 2.272 2.227 6.609z"/><path data-name="Path 7" d="M26.369 63.884h-6.6a3.688 3.688 0 01-3.708-3.593 3.57 3.57 0 013.566-3.533h4.814a.027.027 0 01.026.023 22.379 22.379 0 001.922 7.067.025.025 0 01-.02.036z"/></g></g></svg>